<?xml version="1.0" encoding="utf-8"?>
<!-- Generator: Adobe Illustrator 24.3.0, SVG Export Plug-In . SVG Version: 6.00 Build 0)  -->
<svg version="1.1" id="Layer_1" xmlns="http://www.w3.org/2000/svg" xmlns:xlink="http://www.w3.org/1999/xlink" x="0px" y="0px"
	 viewBox="0 0 800 800" style="enable-background:new 0 0 800 500;" xml:space="preserve">
<style type="text/css">
	.st0{fill:#1C3E6C;}
	.st1{fill:#F6921E;}
	.st2{fill:#3FC3DF;}
	.st3{fill:#735AA5;}
	.st4{fill:#DB4D3A;}
	.st5{fill:#00B287;}
	.st6{fill:#F4DE2D;}
</style>
<g>
	<g>
		<polygon class="st0" points="42.4,342.2 98.5,398.3 154.5,342.2 		"/>
		<polygon class="st1" points="42.4,454.3 98.5,398.3 42.4,342.2 		"/>
		<polygon class="st2" points="154.5,454.3 154.5,398.3 98.5,454.3 		"/>
		<polygon class="st3" points="126.5,426.3 98.5,454.3 42.4,454.3 70.5,426.3 		"/>
		<polygon class="st4" points="98.5,398.3 70.5,426.3 126.5,426.3 		"/>
		<polygon class="st5" points="126.5,370.3 154.5,398.3 154.5,342.2 		"/>
		
			<rect x="106.7" y="378.5" transform="matrix(0.7071 0.7071 -0.7071 0.7071 318.6927 27.1973)" class="st6" width="39.6" height="39.6"/>
	</g>
	<g>
		<path d="M235.2,342.2h-35.7v112.1h34.6c23.1,0,56.5-14.3,56.5-55.8S254.5,342.2,235.2,342.2z M233.4,432.7h-8.2v-68.7h9.4
			c8.1,0,29.3,5.6,29.3,34.6C263.9,427.6,240.6,432.7,233.4,432.7z"/>
		<path d="M358.6,381.2v10.2l-3.1-3.4c-3.1-3.5-10-9.4-21.2-9.4c-9.9,0-19.5,3.8-25.8,10.3c-4.1,4.2-11.1,13.7-11.1,29.5
			c0,10.9,3.2,19.2,10.3,26.9c7.2,7.7,15.8,11.6,25.8,11.6c5.5,0,15.6-1.3,22-10.2l3.2-4.5v12.1h21.1v-73.2H358.6z M338.2,437.1
			c-10.5,0-18.9-8.7-18.9-19.3c0-10.7,8.5-19.3,18.9-19.3c10.5,0,18.9,8.7,18.9,19.3C357.1,428.4,348.6,437.1,338.2,437.1z"/>
		<path d="M506.9,381.2v10.2l-3.1-3.4c-3.1-3.5-10-9.4-21.2-9.4c-9.9,0-19.5,3.8-25.8,10.3c-4.1,4.2-11.1,13.7-11.1,29.5
			c0,10.9,3.2,19.2,10.3,26.9c7.2,7.7,15.8,11.6,25.8,11.6c5.5,0,15.6-1.3,22-10.2l3.2-4.5v12.1H528v-73.2H506.9z M486.5,437.1
			c-10.5,0-18.9-8.7-18.9-19.3c0-10.7,8.5-19.3,18.9-19.3c10.5,0,18.9,8.7,18.9,19.3C505.4,428.4,496.9,437.1,486.5,437.1z"/>
		<polygon points="402.3,342.3 402.3,381.2 393.7,381.2 393.7,400.2 402.3,400.2 402.3,454.4 425.7,454.4 425.7,400.2 441,400.2 
			441,381.2 425.7,381.2 425.7,342.3 		"/>
		<polygon points="719.3,342.2 719.3,454.4 742.7,454.4 742.7,400.2 758,400.2 758,381.2 742.7,381.2 742.7,342.2 		"/>
		<path d="M611,416.4h-32l15.8-47.7L611,416.4z M624.3,454.3H651l-41.3-112.1h-29.1l-42.2,112.1h26.4l7.7-19.6h44.9L624.3,454.3z"/>
		<g>
			<path d="M659.5,454.4h23.4v-31c0-3.1,0-12.6,6.6-18.8c3.3-3.1,7.7-4.6,13.5-4.6c4,0,8.3,0.1,9.9,0.1v-18.8
				c-1.1-0.1-4.7-0.3-4.7-0.3c-4.5,0-8.8,0-12.1,1.8c-4.2,2.1-7.6,5.6-9.9,9.9l-3.3,6.3v-17.9h-23.4V454.4z"/>
		</g>
	</g>
</g>
</svg>
